<svg width="25" height="14" viewBox="0 0 25 14" fill="none" xmlns="http://www.w3.org/2000/svg">
<path d="M22.9996 2.96133H1.89963C1.19963 2.96133 0.599609 2.36133 0.599609 1.66133C0.599609 0.961327 1.19963 0.361328 1.89963 0.361328H22.9996C23.6996 0.361328 24.2996 0.961327 24.2996 1.66133C24.2996 2.36133 23.6996 2.96133 22.9996 2.96133Z" fill="white"/>
<path d="M22.9996 8.16153H1.89963C1.19963 8.16153 0.599609 7.56152 0.599609 6.86152C0.599609 6.16152 1.19963 5.56152 1.89963 5.56152H22.9996C23.6996 5.56152 24.2996 6.16152 24.2996 6.86152C24.2996 7.56152 23.6996 8.16153 22.9996 8.16153Z" fill="white"/>
<path d="M22.9996 13.2611H1.89963C1.19963 13.2611 0.599609 12.6611 0.599609 11.9611C0.599609 11.2611 1.19963 10.6611 1.89963 10.6611H22.9996C23.6996 10.6611 24.2996 11.2611 24.2996 11.9611C24.2996 12.7611 23.6996 13.2611 22.9996 13.2611Z" fill="white"/>
</svg>
