<svg width="27" height="20" viewBox="0 0 20 16" fill="none" xmlns="http://www.w3.org/2000/svg">
<path d="M16.7419 2.08961C15.4719 1.50961 14.1216 1.07961 12.7116 0.849609C12.5316 1.15961 12.3419 1.56961 12.2019 1.89961C10.7019 1.67961 9.21166 1.67961 7.73166 1.89961C7.59166 1.56961 7.38189 1.15961 7.22189 0.849609C5.80189 1.08961 4.45162 1.50961 3.19162 2.08961C0.641618 5.85961 -0.0482839 9.52961 0.291716 13.1596C1.99172 14.3896 3.62166 15.1396 5.23166 15.6296C5.62166 15.0996 5.98146 14.5296 6.28146 13.9196C5.70146 13.6996 5.15154 13.4396 4.61154 13.1196C4.75154 13.0196 4.89144 12.9096 5.01144 12.7996C8.22144 14.2696 11.7116 14.2696 14.8816 12.7996C15.0216 12.9096 15.1515 13.0196 15.2815 13.1196C14.7515 13.4396 14.2015 13.6996 13.6115 13.9196C13.9215 14.5196 14.2718 15.0896 14.6618 15.6296C16.2718 15.1396 17.9118 14.3896 19.6018 13.1596C20.0218 8.95961 18.9319 5.30961 16.7219 2.08961H16.7419ZM6.72189 10.9196C5.75189 10.9196 4.97189 10.0396 4.97189 8.96961C4.97189 7.89961 5.74189 7.01961 6.72189 7.01961C7.70189 7.01961 8.49189 7.89961 8.47189 8.96961C8.47189 10.0396 7.69189 10.9196 6.72189 10.9196ZM13.2019 10.9196C12.2319 10.9196 11.4416 10.0396 11.4416 8.96961C11.4416 7.89961 12.2119 7.01961 13.2019 7.01961C14.1919 7.01961 14.9719 7.89961 14.9519 8.96961C14.9519 10.0396 14.1819 10.9196 13.2019 10.9196Z" fill="#504A4C"/>
</svg>
