<svg width="20" height="20" viewBox="0 0 15 16" fill="none" xmlns="http://www.w3.org/2000/svg">
<path d="M15.001 11.8001V4.56011C15.001 2.53011 13.351 0.870117 11.311 0.870117H4.0708C2.0408 0.870117 0.380859 2.52011 0.380859 4.56011V11.8001C0.380859 13.8301 2.0308 15.4901 4.0708 15.4901H11.311C13.341 15.4901 15.001 13.8401 15.001 11.8001ZM13.4111 11.8001C13.4111 12.9601 12.471 13.9001 11.311 13.9001H4.0708C2.9108 13.9001 1.97119 12.9601 1.97119 11.8001V4.56011C1.97119 3.40011 2.9108 2.46011 4.0708 2.46011H11.311C12.471 2.46011 13.4111 3.40011 13.4111 4.56011V11.8001Z" fill="#504A4C"/>
<path d="M7.69141 4.41992C5.62141 4.41992 3.93164 6.10992 3.93164 8.17992C3.93164 10.2499 5.62141 11.9399 7.69141 11.9399C9.76141 11.9399 11.4517 10.2499 11.4517 8.17992C11.4517 6.10992 9.76141 4.41992 7.69141 4.41992ZM7.69141 10.3599C6.49141 10.3599 5.52148 9.37993 5.52148 8.18993C5.52148 6.99993 6.50141 6.01992 7.69141 6.01992C8.88141 6.01992 9.86133 6.98993 9.86133 8.18993C9.86133 9.38993 8.89141 10.3599 7.69141 10.3599Z" fill="#504A4C"/>
<path d="M11.5815 5.19992C12.0731 5.19992 12.4717 4.80145 12.4717 4.30992C12.4717 3.81839 12.0731 3.41992 11.5815 3.41992C11.09 3.41992 10.6914 3.81839 10.6914 4.30992C10.6914 4.80145 11.09 5.19992 11.5815 5.19992Z" fill="#504A4C"/>
</svg>
