<svg width="65" height="55" viewBox="0 0 65 55" fill="none" xmlns="http://www.w3.org/2000/svg">
<path d="M44.73 21.6797C44.73 15.8997 42.1298 10.7697 38.3398 6.97974C34.5498 3.18974 29.4201 0.509766 23.6401 0.509766C17.8601 0.509766 12.9199 3.36973 9.12988 7.15973C5.33988 10.9497 2.99023 15.8897 2.99023 21.6697C2.99023 27.4497 5.18021 32.5697 8.97021 36.3497C12.7602 40.1397 17.8599 42.7098 23.6499 42.7098C29.4399 42.7098 34.4402 40.0398 38.2202 36.2498C42.0102 32.4598 44.7202 27.4497 44.7202 21.6797H44.73Z" fill="#F3B54F"/>
<path d="M45.4102 21.6594H44.7002C44.2602 21.6594 43.9799 21.4594 43.8599 21.0494L42.7202 17.3995C42.6702 17.2595 42.6098 17.1694 42.5298 17.0994C42.4498 17.0294 42.3698 16.9995 42.2798 16.9995C42.1698 16.9995 42.0798 17.0395 42.0098 17.1395C41.9398 17.2395 41.8999 17.3594 41.8999 17.5394V22.0594C41.8999 22.5594 41.6502 22.8094 41.1602 22.8094H40.98C40.49 22.8094 40.2402 22.5594 40.2402 22.0594V10.4395C40.2402 9.94945 40.49 9.69946 40.98 9.69946H41.25C41.67 9.69946 41.9398 9.89944 42.0698 10.2994L44.5498 18.2294C44.5998 18.4094 44.66 18.5295 44.75 18.6295C44.83 18.7295 44.9298 18.7695 45.0098 18.7695C45.1098 18.7695 45.1998 18.7194 45.2798 18.6194C45.3598 18.5194 45.43 18.3894 45.48 18.2194L47.8101 10.3195C47.9501 9.90946 48.2199 9.68945 48.6299 9.68945H48.9399C49.4299 9.68945 49.6802 9.93944 49.6802 10.4294V22.0494C49.6802 22.5494 49.4299 22.7994 48.9399 22.7994H48.7598C48.2698 22.7994 48.02 22.5494 48.02 22.0494V17.7294C48.02 17.5694 47.9802 17.4294 47.9102 17.3494C47.8402 17.2694 47.7501 17.2294 47.6401 17.2294C47.4501 17.2294 47.3002 17.3494 47.2202 17.6094L46.21 21.0394C46.07 21.4494 45.8001 21.6694 45.3901 21.6694L45.4102 21.6594Z" fill="#201F1C"/>
<path d="M58.041 22.1194L57.5908 19.9294C57.4908 19.4894 57.2408 19.2795 56.8008 19.2795H54.0508C53.6308 19.2795 53.3707 19.4994 53.2607 19.9294L52.811 22.1194C52.711 22.5594 52.461 22.7695 52.021 22.7695H51.8008C51.5808 22.7695 51.4208 22.7194 51.3008 22.6094C51.1808 22.4994 51.1211 22.3494 51.1211 22.1694C51.1211 22.0894 51.1209 22.0194 51.1309 21.9694L53.4512 10.3395C53.5512 9.89948 53.8012 9.68945 54.2412 9.68945H56.541C56.961 9.68945 57.2211 9.90948 57.3311 10.3395L59.7012 21.9694C59.7112 22.0194 59.7109 22.0895 59.7109 22.1895C59.7109 22.5895 59.4808 22.7795 59.0308 22.7795H58.811C58.391 22.7895 58.1308 22.5595 58.0308 22.1295L58.041 22.1194ZM54.8511 11.9995L53.8809 16.8395C53.8709 16.8895 53.8711 16.9594 53.8711 17.0394C53.8711 17.2194 53.9208 17.3694 54.0508 17.4794C54.1608 17.5894 54.3408 17.6395 54.5508 17.6395H56.291C56.741 17.6395 56.9712 17.4494 56.9712 17.0494C56.9712 16.9494 56.9709 16.8695 56.9609 16.8295L55.9512 11.9894C55.8512 11.5494 55.6611 11.3395 55.4111 11.3395C55.1211 11.3395 54.9511 11.5594 54.8511 11.9894V11.9995Z" fill="#201F1C"/>
<path d="M45.0293 36.8998H44.2695C43.8695 36.8998 43.5897 36.7098 43.4297 36.3398L42.2593 33.5698C42.1393 33.2698 41.9695 33.1198 41.7695 33.1198C41.5695 33.1198 41.3993 33.2698 41.2793 33.5698L40.1396 36.3398C40.0596 36.5298 39.9496 36.6798 39.8096 36.7598C39.6696 36.8598 39.5096 36.8998 39.3096 36.8998H38.5996C38.1096 36.8998 37.8594 36.6497 37.8594 36.1597V35.9598C37.8594 35.7298 37.8995 35.5497 37.9995 35.4197C38.0995 35.2997 38.2196 35.2297 38.3696 35.2297C38.6996 35.2297 38.9394 35.0397 39.1094 34.6597L40.7197 30.7897C40.7897 30.6097 40.8296 30.4497 40.8296 30.2997C40.8296 30.1397 40.7897 29.9598 40.7197 29.8098L39.1094 25.9297C38.9494 25.5897 38.7096 25.4297 38.3696 25.4297C38.0296 25.4297 37.8696 25.1698 37.8696 24.6398V24.4398C37.8696 23.9898 38.1194 23.7598 38.6094 23.7598H39.3193C39.5193 23.7598 39.6993 23.7998 39.8193 23.8698C39.9593 23.9398 40.0694 24.0698 40.1494 24.2698L41.2896 27.0598C41.4296 27.3598 41.5893 27.5098 41.7793 27.5098C41.9693 27.5098 42.1295 27.3598 42.2695 27.0598L43.4395 24.2698C43.5995 23.9298 43.8793 23.7698 44.2793 23.7698H45.0396C45.5296 23.7698 45.7793 23.9998 45.7793 24.4498V24.6498C45.7793 24.8798 45.7396 25.0698 45.6396 25.2098C45.5396 25.3598 45.4197 25.4297 45.2397 25.4297C44.8897 25.4297 44.6295 25.6097 44.4795 25.9297L42.8594 29.8398C42.7894 29.9998 42.7495 30.1698 42.7495 30.3298C42.7495 30.4798 42.7894 30.6398 42.8594 30.8198L44.4795 34.6898C44.6395 35.0698 44.8897 35.2598 45.2397 35.2598C45.3997 35.2598 45.5396 35.3298 45.6396 35.4498C45.7396 35.5698 45.7793 35.7597 45.7793 35.9897V36.1898C45.7793 36.6698 45.5296 36.9097 45.0396 36.9097L45.0293 36.8998Z" fill="#201F1C"/>
<path d="M47.0195 35.4295C47.1295 35.3095 47.2895 35.2395 47.4995 35.2395C47.7095 35.2395 47.8695 35.1695 47.9795 35.0495C48.0895 34.9295 48.1396 34.7395 48.1396 34.5095V26.1695C48.1396 25.9395 48.0895 25.7595 47.9795 25.6295C47.8695 25.4895 47.7095 25.4295 47.4995 25.4295C47.2895 25.4295 47.1295 25.3795 47.0195 25.2495C46.9095 25.1295 46.8594 24.9495 46.8594 24.7195V24.5195C46.8594 24.0195 47.1096 23.7695 47.5996 23.7695H50.3696C50.8596 23.7695 51.1094 24.0195 51.1094 24.5195V24.7195C51.1094 25.1995 50.8897 25.4295 50.4697 25.4295C50.2697 25.4295 50.0997 25.4995 49.9897 25.6295C49.8797 25.7595 49.8096 25.9395 49.8096 26.1695V34.5095C49.8096 34.7395 49.8597 34.9195 49.9897 35.0495C50.0997 35.1695 50.2597 35.2395 50.4697 35.2395C50.6797 35.2395 50.8397 35.3095 50.9497 35.4295C51.0597 35.5495 51.1094 35.7395 51.1094 35.9595V36.1595C51.1094 36.6495 50.8596 36.8995 50.3696 36.8995H47.5996C47.1096 36.8995 46.8594 36.6495 46.8594 36.1595V35.9595C46.8594 35.7295 46.9095 35.5495 47.0195 35.4295Z" fill="#201F1C"/>
<path d="M53.2993 36.8993H53.0996C52.6096 36.8993 52.3594 36.6492 52.3594 36.1592V24.5093C52.3594 24.0093 52.6096 23.7593 53.0996 23.7593H53.4697C53.8697 23.7593 54.1496 23.9493 54.3096 24.3193L57.2397 31.0893C57.2897 31.2293 57.3797 31.3393 57.4697 31.3993C57.5697 31.4793 57.6495 31.5093 57.7295 31.5093C57.8395 31.5093 57.9197 31.4593 57.9897 31.3593C58.0597 31.2593 58.0894 31.1092 58.0894 30.9092V24.4893C58.0894 23.9893 58.3396 23.7393 58.8296 23.7393H59.0293C59.5193 23.7393 59.7695 23.9893 59.7695 24.4893V36.1393C59.7695 36.6293 59.5193 36.8793 59.0293 36.8793H58.8296C58.4296 36.8793 58.1497 36.6993 57.9897 36.3393L54.8794 29.2393C54.7594 28.9393 54.5894 28.7892 54.3994 28.7892C54.2894 28.7892 54.1994 28.8393 54.1294 28.9493C54.0594 29.0593 54.0195 29.2192 54.0195 29.4092V36.1393C54.0295 36.6393 53.7896 36.8893 53.3096 36.8893L53.2993 36.8993Z" fill="#201F1C"/>
<path d="M63.9507 23.9393C64.0607 24.0393 64.1104 24.1693 64.1104 24.3393C64.1104 24.4593 64.1003 24.5593 64.0703 24.6093L63.4307 26.7793C63.2907 27.1893 63.0204 27.3893 62.6104 27.3893H62.3906C62.1906 27.3893 62.0206 27.3393 61.9106 27.2393C61.8006 27.1393 61.7305 27.0093 61.7305 26.8393C61.7305 26.7193 61.7405 26.6193 61.7705 26.5693L62.4204 24.3793C62.5604 23.9793 62.8307 23.7793 63.2407 23.7793H63.4604C63.6604 23.7893 63.8304 23.8493 63.9404 23.9393H63.9507Z" fill="#201F1C"/>
<path d="M37.7505 11.9401C37.7505 12.3201 37.6003 12.7301 37.3403 12.9801C37.0803 13.2401 36.6903 13.3101 36.3003 13.3101C35.9103 13.3101 35.5806 13.1601 35.3306 12.9101C35.0706 12.6501 34.8906 12.3201 34.8906 11.9401C34.8906 11.5601 35.0903 11.2501 35.3403 10.9901C35.6003 10.7301 35.9105 10.6201 36.2905 10.6201C36.6705 10.6201 37.0305 10.7001 37.2705 10.9501C37.5305 11.2101 37.7305 11.5601 37.7305 11.9401H37.7505Z" fill="#D2523C"/>
<path d="M37.7803 16.2296C37.7803 16.6096 37.5203 16.9196 37.2803 17.1796C37.0403 17.4396 36.7106 17.6196 36.3306 17.6196C35.9506 17.6196 35.5903 17.4796 35.3403 17.2196C35.0903 16.9596 34.9707 16.6096 34.9707 16.2296C34.9707 15.8496 35.0403 15.4496 35.3003 15.1896C35.5603 14.9296 35.9503 14.8496 36.3403 14.8496C36.7303 14.8496 37.0505 15.0096 37.3105 15.2596C37.5605 15.5196 37.8003 15.8496 37.8003 16.2296H37.7803Z" fill="#D2523C"/>
<path d="M37.6602 20.53C37.6602 20.91 37.5801 21.2899 37.3301 21.5399C37.0701 21.7999 36.6998 21.95 36.3198 21.95C35.9398 21.95 35.6301 21.7299 35.3701 21.4699C35.1101 21.2099 34.9902 20.91 34.9902 20.52C34.9902 20.13 35.0398 19.7599 35.2998 19.4999C35.5598 19.2399 35.9298 19.1699 36.3198 19.1699C36.7098 19.1699 37.0798 19.2399 37.3398 19.4999C37.5898 19.7699 37.6499 20.1499 37.6499 20.5399L37.6602 20.53Z" fill="#D2523C"/>
<path d="M34.01 27.2501C34.13 27.1301 34.2102 26.9901 34.1502 26.8101V26.7101C34.1502 26.4001 34.18 26.0801 34.01 25.8001C34.08 25.4601 33.8601 25.1601 33.8201 24.8301C33.8301 24.7801 33.8204 24.7201 33.8504 24.6801C34.3804 23.6001 33.9905 22.7601 33.1805 22.0401C32.9804 21.8501 32.8804 21.6601 32.8904 21.3901C32.9204 20.9001 32.7003 20.5201 32.2903 20.2601C32.0903 20.1201 32.0301 19.8601 31.8401 19.7201C31.8101 19.6701 31.7705 19.6201 31.7405 19.5701C31.3705 18.8601 30.8703 18.2901 30.2303 17.8101C30.0803 17.6601 29.9301 17.5001 29.7801 17.3501C29.7801 17.3401 29.7703 17.3401 29.7503 17.3201C29.7503 17.2901 29.75 17.2701 29.76 17.2401C29.83 17.2101 29.8802 17.1601 29.9002 17.0801C29.9702 17.0301 30.0604 17.0101 30.0804 16.9201C30.8304 16.5001 30.6204 15.4401 30.1604 14.8601C30.0004 14.6101 29.7203 14.6001 29.4803 14.5101C28.9603 14.3101 28.5802 13.9401 28.1902 13.5701C28.2302 13.4301 28.2701 13.3001 28.3001 13.1501C28.3501 12.8101 28.3305 12.4801 27.9905 12.2901C27.8505 12.1001 27.6805 11.9401 27.4705 11.8001L27.4002 11.7301C27.0202 11.3101 26.6201 10.8901 26.1101 10.6301C25.9601 10.4801 25.8603 10.6301 25.7703 10.7001C25.4203 10.9501 25.0803 11.1901 24.7303 11.4401C24.2903 11.7701 24.3104 11.7701 24.1604 11.2601C24.3504 10.8801 24.2003 10.5501 23.9803 10.2501C23.8703 10.0901 23.7802 9.9201 23.6902 9.7501C23.6602 9.5701 23.5502 9.45013 23.4202 9.34013C23.2702 9.19013 23.0903 9.07011 22.9803 8.88011C22.9003 8.73011 22.75 8.62013 22.76 8.34013C22.46 8.75013 22.2202 8.71008 21.9002 8.41008C21.7002 8.23008 21.4803 8.26012 21.2503 8.33012C21.1503 8.34012 21.0505 8.37013 20.9505 8.40013C20.9005 8.41013 20.8503 8.48007 20.8103 8.47007C19.8403 8.29007 19.2803 9.16011 18.4803 9.38011C17.7603 9.50011 17.3604 10.0601 16.9104 10.5401C16.8404 10.5801 16.7703 10.5101 16.7303 10.6801C16.6303 11.1001 16.3303 11.3701 16.2303 11.7701C16.1203 12.1901 16.0802 12.6001 16.4202 12.9601C16.6502 13.2101 16.7303 13.5501 16.9803 13.7601C16.9803 13.9001 17.0602 13.9801 17.1302 14.0701C17.1702 14.2701 17.3203 14.3401 17.5003 14.3801H17.5301C17.5301 14.8001 17.6102 15.8001 17.6302 15.9601C17.6402 16.1801 17.7802 16.2301 17.9402 16.1601C18.1202 16.0901 18.2404 16.1501 18.3504 16.2801C18.3504 16.3501 18.3602 16.3901 18.4202 16.4301C18.4502 16.7401 18.8002 16.7401 18.9402 16.9901C19.0502 17.1801 19.0201 17.2201 18.8401 17.2401C18.6101 17.2501 18.3602 17.2401 18.1302 17.2401C17.9302 17.2501 17.7302 17.2901 17.6902 17.5501L17.6101 17.6301C16.9601 18.3801 16.9603 18.3901 16.0003 18.0401C15.5503 17.8801 15.1004 17.8501 14.6404 17.8501C14.3004 17.8501 13.2802 19.5001 12.9602 20.0801C12.6502 20.7501 12.4304 21.4401 12.1804 22.1401C12.1004 22.7801 11.6804 24.1601 11.6404 24.2201C11.5304 24.3801 11.4404 24.4801 11.3504 24.7401C11.3404 24.7801 11.3201 24.8101 11.3001 24.8501C10.6601 25.8201 9.99014 26.7601 9.11014 27.5201C8.78014 27.8101 9.16004 27.7901 9.26004 27.9201C9.42004 28.0601 9.48024 28.3001 9.71023 28.3701C9.72023 28.3801 9.76004 28.5501 9.76004 28.6201C9.65004 28.7801 9.47045 28.9101 9.43045 29.1101C9.02045 29.5601 8.61047 30.0201 8.20047 30.4701C8.08047 30.6101 7.95049 30.7201 7.72049 30.6701C7.42049 30.6201 7.26008 30.8601 7.05008 31.0201C6.90008 31.0301 6.78016 31.0501 6.63016 31.0601C6.29016 30.8801 5.91031 30.9201 5.54031 30.8701C5.19031 30.8201 4.94008 31.0701 4.80008 31.3701C4.72008 31.5601 4.57037 31.8201 4.85037 32.0001C4.85037 32.0501 4.86014 32.1001 4.86014 32.1501C4.89014 32.2201 4.90022 32.2901 4.94022 32.3401C4.84022 32.3401 4.76021 32.3501 4.69021 32.4201C3.87021 32.6001 3.06049 32.7701 2.22049 32.7901C1.58049 32.8001 1.31033 33.1601 1.06033 33.6301C1.01033 33.7501 0.870117 34.2701 0.840117 34.4101C0.770117 34.6701 0.720371 34.9401 0.850371 35.2001C0.960371 35.2101 2.54041 35.8501 2.89041 35.9401C3.57041 36.0901 4.27047 36.0501 4.95047 35.9901C5.13047 35.9801 6.98025 35.6201 6.98025 35.6101C7.28025 35.8801 7.40049 36.2901 7.72049 36.5501C7.86049 36.6601 7.95006 36.8201 8.03006 36.9701C8.25006 37.2801 9.81025 40.2401 9.98025 40.3301C10.1603 40.5101 10.2802 40.7101 10.4002 40.9301C10.4102 41.0001 10.4305 41.0501 10.4705 41.0901C10.5805 41.2001 10.7001 41.2801 10.8201 41.3801C10.8601 41.4201 11.1102 41.6701 11.1502 41.7901C11.2602 42.0201 11.8903 42.3601 11.9803 42.4301C12.4003 42.7601 11.9302 43.1801 11.9402 43.2301C11.9302 43.4301 11.9802 43.6001 12.1902 43.6901V43.6501C12.4102 43.9101 12.7303 43.9001 13.0203 43.9601C13.1703 43.9301 13.3202 43.9201 13.4602 43.8401C13.4702 43.8801 13.5003 43.9101 13.5403 43.9401C13.8003 44.0901 13.8704 44.3201 13.8704 44.6101C13.8704 44.7501 14.0201 45.0901 14.0301 45.1101C14.0301 45.2501 14.2601 45.4501 14.2801 45.4901C14.2701 45.6501 14.2404 45.8001 14.1204 45.9101C13.9604 46.0601 13.7904 46.2101 13.6204 46.3601C13.4304 46.5901 13.2704 46.8201 12.9304 46.5401C12.8504 46.4701 12.7004 46.4901 12.6204 46.6101C12.5504 46.7501 12.6203 46.8401 12.7303 46.9001C12.8703 46.9701 12.9503 47.0801 12.9803 47.2301C12.7203 47.3401 12.5402 47.5401 12.4402 47.7901C12.3902 47.9001 12.3205 47.9901 12.2205 48.0601C11.5905 48.5101 10.9701 48.9901 10.3401 49.4501C9.50012 49.7001 8.76014 50.1601 8.11014 50.7301C7.92014 50.9101 7.6201 51.3301 7.5701 51.4401C7.4501 51.6401 7.47027 51.8801 7.50027 52.0901V52.4201C7.36027 53.1101 7.94012 53.3301 8.34012 53.6101C9.43012 54.3201 10.6103 54.1301 11.7903 53.9401C12.6903 53.9901 13.3804 53.4801 14.1204 53.0701C14.2204 53.0201 16.3701 51.8301 16.8201 51.6801C17.5701 51.4301 18.2404 51.0501 18.8904 50.6001C19.2304 50.3701 19.4304 50.0401 19.6004 49.6901V49.3901V47.2101C19.6004 46.9001 19.4005 46.6701 19.2205 46.4301C19.0805 46.2501 19.0303 46.0601 19.0003 45.8601C19.0303 45.6001 19.1002 45.3301 18.9602 45.0801V45.0101C18.5802 44.8701 18.1703 45.0401 17.7903 44.9701C17.6103 44.6201 17.3804 44.2801 17.3904 43.8401C17.3904 43.7201 17.3603 43.5801 17.2303 43.5001C17.2303 43.5001 16.6904 42.6301 16.6604 42.4601C16.7104 42.3401 16.7304 42.2101 16.6204 42.1101C16.6504 42.1101 16.6602 42.1001 16.6902 42.1001C16.7202 42.0701 16.74 42.0501 16.76 42.0201C16.81 41.9801 16.8601 41.9201 16.8401 41.8601C16.8501 41.8501 16.8504 41.8201 16.8704 41.8101C16.9004 41.7401 16.9405 41.6701 16.9505 41.5901V41.5501C16.9505 41.5501 16.9605 41.4801 16.9505 41.4701C16.9505 41.3701 16.9605 41.2801 16.9505 41.1801C16.9405 41.1001 16.9604 41.0201 16.9104 40.9601C16.8804 40.9501 16.8701 40.9201 16.8601 40.8801C16.8701 40.8301 16.8701 40.7701 16.8601 40.7001C16.7801 40.4301 16.5304 40.3901 16.3304 40.2901C16.1704 40.2201 16.0005 40.1801 15.9905 39.9601C15.9505 39.8401 15.8503 39.4001 15.8103 39.2701C15.8003 39.0101 15.67 38.8101 15.51 38.6201C15.16 38.2201 14.8804 37.7901 14.6404 37.3101C14.4604 37.0768 14.5067 36.9234 14.7801 36.8501C14.8501 36.8401 14.9202 36.8101 14.9602 36.7401C15.1902 37.0101 15.5204 36.9901 15.8504 37.0101C16.9404 37.0901 18.0402 37.1101 19.1302 37.2701C20.7102 37.5001 22.3002 37.3501 23.8802 37.3801C24.2502 37.3801 27.9904 37.1101 28.6604 36.9701C28.9904 36.9001 29.2201 36.7401 29.3401 36.4401C29.3701 36.3901 29.4102 36.3401 29.4402 36.2901C29.4802 36.2501 29.5103 36.1901 29.5203 36.1501C29.5503 36.0801 29.8102 35.4801 29.9402 35.2401C30.6902 34.2501 31.3002 33.1601 31.9202 32.0801C32.1802 31.6201 32.4802 31.1801 32.6702 30.6801C32.9602 30.3401 33.3404 30.0801 33.6004 29.7101C33.7104 29.5601 33.8501 29.4401 33.8601 29.2301C34.1101 28.8501 34.1901 28.4401 34.1101 28.0001C34.0801 27.7701 34.0701 27.5201 34.0301 27.2801L34.01 27.2501ZM4.96023 31.9801C5.10023 31.8701 5.2702 31.8601 5.4202 31.8001C5.4302 31.8101 5.46051 31.8001 5.49051 31.8001C5.37051 31.9801 5.15023 31.9401 4.96023 31.9801ZM16.9505 30.3201C16.7905 30.4001 16.58 30.4401 16.51 30.6601C16.07 30.6301 15.6405 30.6301 15.2005 30.7001C15.0605 30.4701 14.8702 30.5201 14.6702 30.5501C13.7602 30.6901 12.8404 30.7101 11.9304 30.8001C11.5104 30.8401 11.5101 30.8101 11.5901 30.4001V30.3701C11.8101 30.5101 12.6501 30.5201 12.6101 30.2501C12.7301 29.7901 13.1304 29.5401 13.4304 29.2101C14.0004 28.5801 14.5701 27.9801 15.0901 27.3201C15.2701 27.4301 15.2003 27.6501 15.3103 27.7801C15.4503 28.0901 15.2704 28.5001 15.6404 28.7301C16.2404 29.3001 16.9705 29.6401 17.7005 30.0001C17.4705 30.1101 17.2105 30.1901 16.9505 30.3101V30.3201ZM23.3401 29.9401V29.9101C23.3401 29.9101 23.3504 29.9001 23.3704 29.9001C23.3704 29.9001 23.3601 29.9134 23.3401 29.9401Z" fill="#201F1C"/>
</svg>
