<?xml version="1.0" standalone="no"?>
<!DOCTYPE svg PUBLIC "-//W3C//DTD SVG 20010904//EN"
 "http://www.w3.org/TR/2001/REC-SVG-20010904/DTD/svg10.dtd">
<svg version="1.0" xmlns="http://www.w3.org/2000/svg"
 width="25" height="25" viewBox="0 0 190.000000 111.000000"
 preserveAspectRatio="xMidYMid meet">

<g transform="translate(0.000000,111.000000) scale(0.100000,-0.100000)"
fill="#000000" stroke="none">
<path d="M125 1093 c-34 -8 -63 -43 -74 -88 -7 -29 -11 -193 -11 -467 0 -391
1 -426 18 -457 21 -39 73 -71 115 -71 43 0 102 37 126 80 20 36 21 52 21 289
0 196 3 251 13 251 7 0 60 -48 117 -106 136 -137 172 -164 222 -164 21 0 51 6
66 14 15 8 86 93 157 190 87 117 135 175 146 173 20 -2 159 -164 159 -184 0
-7 -45 -73 -100 -148 -142 -191 -160 -221 -160 -270 0 -48 19 -78 63 -103 29
-15 69 -17 399 -17 355 0 367 1 395 21 64 47 78 130 31 182 -44 47 -72 52
-293 52 -125 0 -205 4 -205 10 0 5 29 42 64 83 89 102 116 144 116 183 0 52
-14 76 -99 178 -45 52 -81 100 -81 105 0 8 70 11 210 11 227 0 241 3 290 55
21 22 25 36 25 87 -1 53 -4 63 -28 84 -15 12 -46 26 -69 29 -24 3 -204 5 -400
3 -344 -3 -358 -4 -385 -24 -15 -12 -87 -101 -159 -200 -72 -98 -137 -180
-144 -182 -6 -2 -100 84 -209 191 -108 108 -209 201 -225 206 -28 11 -75 13
-111 4z" fill="white"/>
</g>
</svg>
