<svg width="31" height="29" viewBox="0 0 31 29" fill="none" xmlns="http://www.w3.org/2000/svg">
<path d="M26.3203 3.96957H21.8398L21.4502 1.65958C21.3102 0.849576 20.7603 0.30957 20.0703 0.30957H11.1797C10.4897 0.30957 9.93981 0.849576 9.7998 1.65958L9.41016 3.97958H4.92969C3.81969 3.97958 2.76047 4.41959 1.98047 5.19958C1.20047 5.97958 0.759766 7.03957 0.759766 8.14957V23.8996C0.759766 25.0096 1.20047 26.0696 1.98047 26.8496C2.76047 27.6296 3.81969 28.0696 4.92969 28.0696H26.3301C27.4401 28.0696 28.5003 27.6296 29.2803 26.8496C30.0603 26.0696 30.5 25.0096 30.5 23.8996V8.14957C30.5 7.03957 30.0603 5.97958 29.2803 5.19958C28.5003 4.41959 27.4401 3.97958 26.3301 3.97958L26.3203 3.96957ZM10.9502 1.84958C10.9802 1.66958 11.0697 1.46957 11.1797 1.46957H20.0703C20.1703 1.46957 20.2698 1.65958 20.2998 1.84958L20.6602 3.96957H10.5898L10.9502 1.84958ZM29.3301 23.8896C29.3301 24.6896 29.0102 25.4496 28.4502 26.0196C27.8902 26.5796 27.1203 26.8996 26.3203 26.8996H4.91992C4.11992 26.8996 3.36004 26.5796 2.79004 26.0196C2.23004 25.4596 1.91016 24.6896 1.91016 23.8896V8.13959C1.91016 7.33959 2.23004 6.57958 2.79004 6.00958C3.35004 5.44958 4.11992 5.12958 4.91992 5.12958H26.3203C27.1203 5.12958 27.8802 5.44958 28.4502 6.00958C29.0102 6.56958 29.3301 7.33959 29.3301 8.13959V23.8896ZM24.9404 7.02957C24.4504 7.02957 23.9799 7.21958 23.6299 7.56958C23.2799 7.91958 23.0898 8.38958 23.0898 8.87958C23.0898 9.36958 23.2799 9.83957 23.6299 10.1896C23.9799 10.5396 24.4504 10.7296 24.9404 10.7296C25.4304 10.7296 25.9 10.5396 26.25 10.1896C26.6 9.83957 26.79 9.36958 26.79 8.87958C26.79 8.38958 26.59 7.91956 26.25 7.57956C25.91 7.23956 25.4302 7.03958 24.9502 7.03958L24.9404 7.02957ZM24.9404 9.54956C24.6704 9.54956 24.4196 9.37958 24.3096 9.12958C24.1996 8.87958 24.26 8.57959 24.46 8.38959C24.66 8.19959 24.9502 8.13956 25.2002 8.23956C25.4502 8.34956 25.6201 8.58957 25.6201 8.86957C25.6201 9.23957 25.3204 9.54956 24.9404 9.54956ZM15.6201 9.99957C14.0301 9.99957 12.5001 10.6296 11.3701 11.7596C10.2401 12.8896 9.61035 14.4096 9.61035 16.0096C9.61035 17.6096 10.2401 19.1296 11.3701 20.2596C12.5001 21.3896 14.0201 22.0196 15.6201 22.0196C17.2201 22.0196 18.7401 21.3896 19.8701 20.2596C21.0001 19.1296 21.6299 17.6096 21.6299 16.0096C21.6299 14.4196 21.0001 12.8896 19.8701 11.7696C18.7401 10.6396 17.2199 10.0096 15.6299 10.0096L15.6201 9.99957ZM15.6201 20.8396C14.3401 20.8396 13.1102 20.3296 12.2002 19.4196C11.2902 18.5096 10.7803 17.2796 10.7803 15.9996C10.7803 14.7196 11.2902 13.4896 12.2002 12.5796C13.1102 11.6696 14.3401 11.1596 15.6201 11.1596C16.9001 11.1596 18.13 11.6696 19.04 12.5796C19.95 13.4896 20.46 14.7196 20.46 15.9996C20.46 17.2796 19.95 18.5096 19.04 19.4196C18.13 20.3296 16.9001 20.8396 15.6201 20.8396Z" fill="#EAE9E8"/>
</svg>
