<svg width="15" height="18" viewBox="0 0 15 18" fill="none" xmlns="http://www.w3.org/2000/svg">
<path d="M14.7102 8.39941C14.7102 7.68941 14.1201 7.07941 13.4101 7.07941H12.8801C12.6101 7.07941 12.3701 7.17943 12.1701 7.31943C12.1301 6.64943 11.5401 6.07941 10.8701 6.07941H10.3402C10.0702 6.07941 9.81017 6.19943 9.59017 6.34943C9.47017 5.79943 8.96014 5.36942 8.37014 5.36942H7.78017C7.51017 5.36942 7.27015 5.46941 7.07015 5.60941V1.57941C7.07015 0.789407 6.50016 0.149414 5.77016 0.149414H5.38015C4.61015 0.149414 3.97011 0.799429 3.97011 1.53943V8.50943L3.36013 7.36942C2.99013 6.59942 2.26011 6.18943 1.47011 6.59943L1.16011 6.75943C0.300114 7.30943 0.59016 8.14941 0.77016 8.67941C0.85016 8.87941 2.54014 13.4494 3.81014 15.4694C4.05014 15.8594 4.97014 17.0994 6.50014 17.0994H10.8801C12.6901 17.0994 14.6901 15.7294 14.6901 13.8394C14.7101 8.92942 14.7101 10.1494 14.6901 8.37943L14.7102 8.39941ZM14.1601 13.8594C14.1601 15.3694 12.4102 16.5494 10.9002 16.5494H6.52016C5.26016 16.5494 4.50013 15.5094 4.30013 15.1794C3.06013 13.2194 1.34015 8.51943 1.32015 8.47943C1.06015 7.72943 1.08016 7.47941 1.46016 7.23941L1.73012 7.07941C2.22012 6.81941 2.61012 7.13941 2.85012 7.60941L4.01015 9.74942C4.15015 10.0194 4.56012 9.90942 4.54012 9.58942V1.51941C4.54012 1.08941 4.95015 0.699432 5.38015 0.699432H5.77016C6.24016 0.699432 6.52016 1.14942 6.52016 1.55942V7.81943C6.52016 8.18943 7.09017 8.18943 7.09017 7.81943V6.65942C7.09017 6.26942 7.38013 5.92941 7.80013 5.92941H8.39016C8.76016 5.92941 9.08016 6.25943 9.08016 6.63943V8.52942C9.08016 8.89942 9.65016 8.89942 9.65016 8.52942V7.40942C9.65016 7.01942 9.96013 6.65942 10.3601 6.65942H10.8902C11.2802 6.65942 11.6202 7.00942 11.6402 7.40942V9.34943C11.6402 9.71943 12.2102 9.71943 12.2102 9.34943V8.38943C12.2102 7.99943 12.5201 7.63943 12.9201 7.63943H13.4502C13.8402 7.63943 14.1801 7.98943 14.1801 8.38943C14.1801 10.1394 14.1801 9.03943 14.1801 13.8494L14.1601 13.8594Z" fill="#EAE9E8"/>
</svg>
