<svg width="25" height="20" viewBox="0 0 19 16" fill="none" xmlns="http://www.w3.org/2000/svg">
<path d="M18.4507 2.55008C17.7907 2.84008 17.0803 3.04007 16.3403 3.13007C17.1003 2.68007 17.6804 1.96007 17.9604 1.10007C17.2505 1.52007 16.4604 1.83007 15.6304 1.99007C14.9604 1.28007 14.0107 0.830078 12.9507 0.830078C10.9207 0.830078 9.28027 2.47008 9.28027 4.50008C9.28027 4.79008 9.31037 5.07007 9.38037 5.34007C6.33037 5.19007 3.62055 3.72008 1.81055 1.50008C1.49055 2.04008 1.31055 2.67007 1.31055 3.35007C1.31055 4.62007 1.96043 5.75008 2.94043 6.41008C2.34043 6.39008 1.77027 6.23007 1.28027 5.95007C1.28027 5.97007 1.28027 5.98008 1.28027 6.00008C1.28027 7.78008 2.55047 9.26007 4.23047 9.60007C3.92047 9.68007 3.60025 9.73008 3.26025 9.73008C3.02025 9.73008 2.79031 9.71008 2.57031 9.66008C3.04031 11.1201 4.39049 12.1801 6.00049 12.2101C4.74049 13.2001 3.16043 13.7801 1.44043 13.7801C1.14043 13.7801 0.850547 13.7601 0.560547 13.7301C2.19055 14.7701 4.12043 15.3801 6.19043 15.3801C12.9504 15.3801 16.6406 9.78008 16.6406 4.93008C16.6406 4.77008 16.6404 4.61007 16.6304 4.45007C17.3504 3.93007 17.9704 3.29008 18.4604 2.55008" fill="#00acee"/>
</svg>
